<svg xmlns="http://www.w3.org/2000/svg" viewBox="0 0 58.63 30.51"><defs><style>.cls-1{fill:#fff;}</style></defs><g id="레이어_2" data-name="레이어 2"><g id="레이어_1-2" data-name="레이어 1"><path class="cls-1" d="M51.26,27.07c-.19,0-.28.06-.28.25V28c0,.19.09.26.28.26H52v.4c0,.42-.31.59-.76.59s-.76-.17-.76-.59V26c0-.42.31-.59.76-.59s.76.17.76.59v.07c0,.19.08.27.27.27h.94c.19,0,.25-.08.25-.27v-.33c0-.79-.53-1.56-2.24-1.56S49,24.94,49,25.73V29c0,.78.53,1.56,2.24,1.56s2.24-.78,2.24-1.56V27.32c0-.19-.08-.25-.27-.25Zm-3.83-2.55c0-.19-.06-.28-.25-.28h-.89c-.19,0-.27.09-.27.28v3.09c-.09-.22-.21-.49-.31-.68l-1.54-2.58a.24.24,0,0,0-.23-.11h-.89c-.19,0-.27.09-.27.28v5.64c0,.19.08.27.27.27h.89c.19,0,.25-.08.25-.27V27.07a6.09,6.09,0,0,0,.39.82L46,30.31a.24.24,0,0,0,.25.12h.89c.19,0,.25-.08.25-.27Zm-6.29,0c0-.19-.06-.28-.25-.28h-1c-.2,0-.27.09-.27.28v5.64c0,.19.07.27.27.27h1c.19,0,.25-.08.25-.27Zm-4.68,5.91a.31.31,0,0,0,.34-.27l1.65-5.64c0-.18,0-.28-.2-.28h-1c-.2,0-.28.1-.32.28l-.7,2.55c-.13.51-.25,1.48-.25,1.48a11.61,11.61,0,0,0-.23-1.48l-.68-2.55c-.05-.18-.13-.28-.32-.28H33.7c-.19,0-.26.1-.2.28l1.64,5.64a.32.32,0,0,0,.34.27ZM32.3,24.52c0-.19-.06-.28-.25-.28h-1c-.19,0-.27.09-.27.28v5.64c0,.19.08.27.27.27h1c.19,0,.25-.08.25-.27Zm-4.83,0c0-.19-.06-.28-.26-.28h-1c-.19,0-.26.09-.26.28v5.64c0,.18.06.27.23.27h3.05c.19,0,.28-.07.28-.26v-.71c0-.19-.09-.25-.28-.25H27.47Zm-7,3.58h-.86l.14-.49c.14-.53.29-1.77.31-1.9a17,17,0,0,0,.28,1.9Zm.11-3.86h-1c-.19,0-.28.09-.33.28l-1.65,5.64c-.06.17,0,.27.2.27h.92c.19,0,.27-.1.32-.27l.23-.87h1.51l.24.87c.05.17.13.27.32.27h1c.19,0,.25-.1.2-.27l-1.65-5.64c-.05-.19-.14-.28-.33-.28m-5.47,1.82c0,.2.07.28.26.28h.94c.2,0,.27-.08.27-.28v-.33c0-.79-.51-1.56-2.19-1.56s-2.16.77-2.16,1.56v.53a1.37,1.37,0,0,0,.84,1.21l1.32.49c.34.13.78.28.78.61v.18c0,.42-.37.57-.81.57s-.8-.15-.8-.57v-.41c0-.19-.07-.27-.26-.27h-.94c-.2,0-.27.08-.27.27V29c0,.78.57,1.56,2.29,1.56s2.26-.78,2.26-1.56V28.3a1.47,1.47,0,0,0-1.13-1.37L14,26.41a.43.43,0,0,1-.3-.39v-.09c0-.42.3-.58.72-.58s.71.16.71.58Zm-6,2H8.3l.13-.49a16.32,16.32,0,0,0,.31-1.9A17.61,17.61,0,0,0,9,27.61Zm.11-3.86h-1c-.19,0-.28.09-.34.28L6.3,30.16c-.06.17,0,.27.2.27h.91a.29.29,0,0,0,.32-.27L8,29.29H9.48l.24.87a.3.3,0,0,0,.32.27h1c.19,0,.25-.1.2-.27L9.6,24.52c-.06-.19-.15-.28-.34-.28M5.33,28.4c0-.2-.06-.28-.26-.28H4.14c-.19,0-.27.08-.27.28v.29c0,.42-.32.59-.76.59s-.76-.17-.76-.59V26c0-.42.31-.59.76-.59s.76.17.76.59v.16c0,.19.08.27.27.27h.93c.2,0,.26-.08.26-.27v-.42c0-.79-.53-1.56-2.24-1.56S.85,24.94.85,25.73V29c0,.78.53,1.56,2.24,1.56S5.33,29.73,5.33,29Z"/><path class="cls-1" d="M52.19,20.13a1,1,0,0,0,1.08-.88l5.3-18.14c.17-.55,0-.88-.65-.88H54.76c-.61,0-.87.33-1,.88L51.52,9.3a46.72,46.72,0,0,0-.82,4.77A38.73,38.73,0,0,0,50,9.3l-2.2-8.19c-.14-.55-.41-.88-1-.88H43.3c-.62,0-.82.33-.65.88L48,19.25a1,1,0,0,0,1.08.88Zm-14-19c0-.61-.21-.88-.82-.88H34.17c-.61,0-.85.27-.85.88V19.25c0,.59.21.88.73.88h9.83c.62,0,.88-.24.88-.85V17c0-.62-.26-.82-.88-.82H38.15ZM26,6.09c0,.61.21.87.82.87h3c.61,0,.84-.26.84-.87V5c0-2.51-1.63-5-7-5s-6.93,2.49-6.93,5V6.7a4.36,4.36,0,0,0,2.72,3.89l4.21,1.58c1.12.41,2.52.91,2.52,2v.59c0,1.34-1.17,1.84-2.6,1.84S21,16.06,21,14.72V13.4c0-.62-.2-.88-.82-.88h-3c-.62,0-.85.26-.85.88v2c0,2.52,1.84,5,7.34,5s7.29-2.48,7.29-5V13.28c0-2.16-1.49-3.68-3.66-4.42L22.31,7.2a1.34,1.34,0,0,1-.94-1.26V5.65c0-1.35,1-1.85,2.31-1.85S26,4.3,26,5.65ZM14.39,13.57c0-.61-.2-.87-.82-.87h-3c-.61,0-.85.26-.85.87v.94c0,1.35-1,1.9-2.45,1.9s-2.43-.55-2.43-1.9V5.85c0-1.34,1-1.9,2.43-1.9s2.45.56,2.45,1.9v.5c0,.61.24.88.85.88h3c.62,0,.82-.27.82-.88V5c0-2.51-1.69-5-7.19-5S0,2.49,0,5V15.36c0,2.52,1.7,5,7.2,5s7.19-2.48,7.19-5Z"/></g></g></svg>