<svg xmlns="http://www.w3.org/2000/svg" viewBox="0 0 185.31 109.34"><defs><style>.cls-1{fill:#fff;}</style></defs><g id="레이어_2" data-name="레이어 2"><g id="레이어_1-2" data-name="레이어 1"><path class="cls-1" d="M.56,34.6H11.21c7.23,0,12.2,4.11,12.19,10.81s-5,10.8-12.2,10.8H.55ZM10.9,50.53a4.75,4.75,0,0,0,5.15-5.12c0-3.3-2.09-5.12-5.15-5.12H7.85V50.53Z"/><path class="cls-1" d="M45.56,54.82a21.16,21.16,0,0,1-9.14,1.9C29,56.72,25.09,53.91,25.1,50a5.27,5.27,0,0,1,3.4-4.94,4.66,4.66,0,0,1-2.5-4.2c0-3.52,3.37-6.73,10.87-6.72A22.75,22.75,0,0,1,45,35.55l-2,5.31a15.37,15.37,0,0,0-5.84-1.18c-2.65,0-3.8.65-3.8,1.64,0,.8.5,1.33,2,1.33h6.33V48H34.85c-1.67,0-2.41.58-2.41,1.48s1.18,1.67,4.26,1.67a15.66,15.66,0,0,0,6.73-1.63Z"/><path class="cls-1" d="M46.15,54.51,48.5,49.2a14.84,14.84,0,0,0,7.13,2c2.06,0,2.81-.43,2.81-1.17,0-2.72-11.95-.53-11.95-8.59,0-4,3.37-7.29,10.07-7.28A17.1,17.1,0,0,1,64.71,36L62.52,41.3a13.34,13.34,0,0,0-6-1.6c-2.13,0-2.81.61-2.81,1.35,0,2.6,11.94.44,11.94,8.41,0,3.95-3.37,7.28-10.07,7.28a19.42,19.42,0,0,1-9.41-2.23"/><polygon class="cls-1" points="77.64 40.14 77.64 50.76 80.88 50.76 80.88 56.26 67.11 56.25 67.11 50.75 70.35 50.76 70.36 40.14 67.12 40.13 67.12 34.64 80.89 34.65 80.89 40.14 77.64 40.14"/><path class="cls-1" d="M97.86,44.88h6.33V56.27H99.43V54.94a8.69,8.69,0,0,1-5.8,1.82c-6,0-10.93-3.9-10.93-11,0-6.91,5.1-11.57,12.24-11.57,4.26,0,7.68,1.49,9.87,4.18l-4.66,4.1a6.15,6.15,0,0,0-4.85-2.38c-3.21,0-5.25,2.06-5.25,5.61,0,3.74,2,5.31,4.6,5.32a5.61,5.61,0,0,0,3.21-.93Z"/><path class="cls-1" d="M128.49,43.78v12.5h-7.29V44c0-2.71-1.26-3.92-3.21-3.92s-3.39,1.3-3.4,4.17v12H107.3V34.66h7.07V37a7.29,7.29,0,0,1,6.06-2.8c5.09,0,8.05,3.43,8.05,9.6"/><path class="cls-1" d="M.05,80.77,2.4,75.46a14.73,14.73,0,0,0,7.13,2c2.06,0,2.81-.43,2.81-1.17,0-2.72-11.95-.53-11.95-8.59,0-4,3.37-7.28,10.07-7.28a17.1,17.1,0,0,1,8.15,1.89l-2.19,5.28a13.23,13.23,0,0,0-6-1.61c-2.13,0-2.81.61-2.81,1.35,0,2.6,11.94.44,11.94,8.41,0,4-3.37,7.28-10.07,7.28A19.42,19.42,0,0,1,.05,80.77"/><path class="cls-1" d="M42.81,71V82.52H35.52V78.17H28.67v4.35H21.5V71c0-6.77,4.36-10.59,10.65-10.59S42.81,64.25,42.81,71m-7.29,1.66V70.39c0-2.78-1.45-4.08-3.42-4.08s-3.43,1.29-3.43,4.07v2.29Z"/><polygon class="cls-1" points="46.15 60.91 53.43 60.92 53.42 76.88 63.18 76.89 63.18 82.53 46.13 82.52 46.15 60.91"/><path class="cls-1" d="M64,71.73c0-6.54,5.16-11.3,12.2-11.29S88.41,65.2,88.4,71.74,83.24,83,76.2,83,64,78.28,64,71.73m17,0c0-3.36-2.16-5.4-4.85-5.4s-4.85,2-4.85,5.39,2.16,5.41,4.85,5.41,4.84-2,4.85-5.4"/><path class="cls-1" d="M112.24,70.06v12.5h-7.29V70.27c0-2.71-1.26-3.92-3.21-3.92s-3.39,1.3-3.4,4.17v12H91.05V60.94h7.07v2.31a7.29,7.29,0,0,1,6.06-2.8c5.09,0,8,3.43,8,9.6"/><path class="cls-1" d="M32,107.08l2.35-5.31a14.84,14.84,0,0,0,7.13,2c2.06,0,2.8-.43,2.81-1.17,0-2.72-12-.54-12-8.59,0-4,3.37-7.29,10.07-7.28a17.1,17.1,0,0,1,8.15,1.89l-2.19,5.27a13.36,13.36,0,0,0-6-1.61c-2.13,0-2.81.62-2.81,1.36,0,2.59,11.94.44,11.94,8.41,0,4-3.37,7.28-10.07,7.27A19.31,19.31,0,0,1,32,107.08"/><path class="cls-1" d="M73.1,107.41A21.37,21.37,0,0,1,64,109.32c-7.47,0-11.33-2.82-11.33-6.74A5.29,5.29,0,0,1,56,97.64a4.65,4.65,0,0,1-2.5-4.2c0-3.52,3.37-6.72,10.87-6.72a22.54,22.54,0,0,1,8.09,1.43l-2,5.3a15.3,15.3,0,0,0-5.83-1.17c-2.66,0-3.8.64-3.8,1.63,0,.8.49,1.33,2,1.33h6.32v5.38H62.39c-1.67,0-2.41.59-2.41,1.48s1.17,1.67,4.26,1.67A15.52,15.52,0,0,0,71,102.13Z"/><path class="cls-1" d="M73.72,98c0-6.54,5.16-11.29,12.2-11.29S98.11,91.49,98.11,98,93,109.33,85.91,109.33,73.72,104.57,73.72,98m17,0c0-3.36-2.16-5.4-4.84-5.4s-4.85,2-4.85,5.4,2.15,5.4,4.84,5.4,4.85-2,4.85-5.4"/><path class="cls-1" d="M121.64,87.25l0,21.61h-7.07v-2.31a7.21,7.21,0,0,1-6,2.8c-5,0-8-3.43-8-9.6V87.24h7.29V99.53c0,2.71,1.27,3.92,3.15,3.92s3.33-1.3,3.34-4.17v-12Z"/><polygon class="cls-1" points="125.16 87.25 132.44 87.25 132.43 103.22 142.19 103.22 142.19 108.87 125.14 108.86 125.16 87.25"/><path class="cls-1" d="M15.79,19.76v5.11H.63V.33H15.12V5.45H7V19.75Zm8.68,6.13h-6.4V0h6.41Z"/><path class="cls-1" d="M39.2,6.45a31.71,31.71,0,0,0,.66,6.93,11.35,11.35,0,0,0,1.88,4.48,3.89,3.89,0,0,0,2.73,1.74L43.1,24.88a7.6,7.6,0,0,1-3.73-1.36A11,11,0,0,1,36.19,20,11.06,11.06,0,0,1,33,23.51a7.6,7.6,0,0,1-3.73,1.36l-1.36-5.28q2.76-.27,4-3.5c.84-2.16,1.27-5.37,1.27-9.64v-1h-4.6V.35H43.76V5.47H39.2ZM52.41,9.87H55V15H52.41V25.91H46V0h6.41Z"/><path class="cls-1" d="M64.65.37a7.56,7.56,0,0,1,5.7,2c1.28,1.32,1.92,3.3,1.92,5.91s-.64,4.58-1.93,5.9a7.52,7.52,0,0,1-5.7,2,7.58,7.58,0,0,1-5.71-2Q57,12.18,57,8.27t1.93-5.91a7.58,7.58,0,0,1,5.71-2m-.56,17.17v3.23H81v5.15l-23.27,0V17.53Zm.55-12.06a1.13,1.13,0,0,0-1.26,1.29v3a1.26,1.26,0,1,0,2.52,0v-3a1.13,1.13,0,0,0-1.26-1.29M80.92,18.23H74.51L74.53,0h6.4Z"/><path class="cls-1" d="M92.5,9.28A9.08,9.08,0,0,1,89.42,11a11.34,11.34,0,0,1-3.7.59L84.36,7.53A4.49,4.49,0,0,0,87.92,6a6.48,6.48,0,0,0,1.39-4.46V0h6.37V1.51A6.52,6.52,0,0,0,97.05,6a4.52,4.52,0,0,0,3.56,1.57l-1.36,4.09a11.34,11.34,0,0,1-3.7-.6,8.85,8.85,0,0,1-3-1.75m-.38,11.88v1h17.1v3.74H85.72V17.41h16.8v-1H85.72V12.64l23.17,0v8.51Zm16.77-17.6h2.56V8h-2.55v3.65h-6.37V.05h6.37Z"/><path class="cls-1" d="M120.23,8.78h17.44V12H129v1H138v3.71H113.48V13h9.06V12h-8.38V4.59h16.76v-1H114.17V.43l23.17,0V7.8h-17.1ZM135.91,25A6.71,6.71,0,0,1,132,26H119.51a6.71,6.71,0,0,1-3.94-1,3.53,3.53,0,0,1-1.41-3.08,3.5,3.5,0,0,1,1.42-3.08,6.68,6.68,0,0,1,3.93-1H132a6.68,6.68,0,0,1,3.93,1,3.51,3.51,0,0,1,1.41,3.08A3.51,3.51,0,0,1,135.91,25m-15.72-3.6a.78.78,0,0,0-.46.14.44.44,0,0,0-.19.37.44.44,0,0,0,.19.38.76.76,0,0,0,.46.13h11.1a.74.74,0,0,0,.46-.14.42.42,0,0,0,.19-.37.46.46,0,0,0-.18-.38.78.78,0,0,0-.46-.13Z"/><path class="cls-1" d="M143.75,31.94a26,26,0,0,0,1.29,9.3,6.32,6.32,0,0,0,3.64,4l-2,5.11a6.81,6.81,0,0,1-3.15-1.54,11.44,11.44,0,0,1-2.74-3.37A12.18,12.18,0,0,1,138,48.8a7.31,7.31,0,0,1-3.13,1.56l-2-5.11a6.27,6.27,0,0,0,3.68-4q1.26-3.13,1.26-9.3V25.84h6Zm6.48-6.51h6.4v26h-6.41V39.09h-3.85V34h3.85Z"/><path class="cls-1" d="M185.3,38.4h-9.09v1h8.41v7.7H167.79v1H185v3.37H161.39V43.7h16.83v-1H161.39V39.37h8.42v-1h-9.1V34.67l24.6,0Zm-19.92-4.78a3.92,3.92,0,0,1-2.89-1.08,3.78,3.78,0,0,1-1.09-2.84,3.78,3.78,0,0,1,1.09-2.84,3.94,3.94,0,0,1,2.9-1.08h15.26a3.93,3.93,0,0,1,2.89,1.08,3.78,3.78,0,0,1,1.09,2.84,3.86,3.86,0,0,1-1.09,2.85,4,4,0,0,1-2.9,1.07Zm3-4.5a.62.62,0,0,0-.41.16.54.54,0,0,0-.17.42.57.57,0,0,0,.17.41.54.54,0,0,0,.41.17h9.27a.54.54,0,0,0,.42-.17.61.61,0,0,0,.15-.41.5.5,0,0,0-.57-.58Z"/><rect class="cls-1" y="97.03" width="25.19" height="5.5"/><path class="cls-1" d="M.56,34.6H11.21c7.23,0,12.2,4.11,12.19,10.81s-5,10.8-12.2,10.8H.55ZM10.9,50.53a4.75,4.75,0,0,0,5.15-5.12c0-3.3-2.09-5.12-5.15-5.12H7.85V50.53Z"/><path class="cls-1" d="M45.56,54.82a21.16,21.16,0,0,1-9.14,1.9C29,56.72,25.09,53.91,25.1,50a5.27,5.27,0,0,1,3.4-4.94,4.66,4.66,0,0,1-2.5-4.2c0-3.52,3.37-6.73,10.87-6.72A22.75,22.75,0,0,1,45,35.55l-2,5.31a15.37,15.37,0,0,0-5.84-1.18c-2.65,0-3.8.65-3.8,1.64,0,.8.5,1.33,2,1.33h6.33V48H34.85c-1.67,0-2.41.58-2.41,1.48s1.18,1.67,4.26,1.67a15.66,15.66,0,0,0,6.73-1.63Z"/><path class="cls-1" d="M46.15,54.51,48.5,49.2a14.84,14.84,0,0,0,7.13,2c2.06,0,2.81-.43,2.81-1.17,0-2.72-11.95-.53-11.95-8.59,0-4,3.37-7.29,10.07-7.28A17.1,17.1,0,0,1,64.71,36L62.52,41.3a13.34,13.34,0,0,0-6-1.6c-2.13,0-2.81.61-2.81,1.35,0,2.6,11.94.44,11.94,8.41,0,3.95-3.37,7.28-10.07,7.28a19.42,19.42,0,0,1-9.41-2.23"/><polygon class="cls-1" points="77.64 40.14 77.64 50.76 80.88 50.76 80.88 56.26 67.11 56.25 67.11 50.75 70.35 50.76 70.36 40.14 67.12 40.13 67.12 34.64 80.89 34.65 80.89 40.14 77.64 40.14"/><path class="cls-1" d="M97.86,44.88h6.33V56.27H99.43V54.94a8.69,8.69,0,0,1-5.8,1.82c-6,0-10.93-3.9-10.93-11,0-6.91,5.1-11.57,12.24-11.57,4.26,0,7.68,1.49,9.87,4.18l-4.66,4.1a6.15,6.15,0,0,0-4.85-2.38c-3.21,0-5.25,2.06-5.25,5.61,0,3.74,2,5.31,4.6,5.32a5.61,5.61,0,0,0,3.21-.93Z"/><path class="cls-1" d="M128.49,43.78v12.5h-7.29V44c0-2.71-1.26-3.92-3.21-3.92s-3.39,1.3-3.4,4.17v12H107.3V34.66h7.07V37a7.29,7.29,0,0,1,6.06-2.8c5.09,0,8.05,3.43,8.05,9.6"/><path class="cls-1" d="M.05,80.77,2.4,75.46a14.73,14.73,0,0,0,7.13,2c2.06,0,2.81-.43,2.81-1.17,0-2.72-11.95-.53-11.95-8.59,0-4,3.37-7.28,10.07-7.28a17.1,17.1,0,0,1,8.15,1.89l-2.19,5.28a13.23,13.23,0,0,0-6-1.61c-2.13,0-2.81.61-2.81,1.35,0,2.6,11.94.44,11.94,8.41,0,4-3.37,7.28-10.07,7.28A19.42,19.42,0,0,1,.05,80.77"/><path class="cls-1" d="M42.81,71V82.52H35.52V78.17H28.67v4.35H21.5V71c0-6.77,4.36-10.59,10.65-10.59S42.81,64.25,42.81,71m-7.29,1.66V70.39c0-2.78-1.45-4.08-3.42-4.08s-3.43,1.29-3.43,4.07v2.29Z"/><polygon class="cls-1" points="46.15 60.91 53.43 60.92 53.42 76.88 63.18 76.89 63.18 82.53 46.13 82.52 46.15 60.91"/><path class="cls-1" d="M64,71.73c0-6.54,5.16-11.3,12.2-11.29S88.41,65.2,88.4,71.74,83.24,83,76.2,83,64,78.28,64,71.73m17,0c0-3.36-2.16-5.4-4.85-5.4s-4.85,2-4.85,5.39,2.16,5.41,4.85,5.41,4.84-2,4.85-5.4"/><path class="cls-1" d="M112.24,70.06v12.5h-7.29V70.27c0-2.71-1.26-3.92-3.21-3.92s-3.39,1.3-3.4,4.17v12H91.05V60.94h7.07v2.31a7.29,7.29,0,0,1,6.06-2.8c5.09,0,8,3.43,8,9.6"/><path class="cls-1" d="M32,107.08l2.35-5.31a14.84,14.84,0,0,0,7.13,2c2.06,0,2.8-.43,2.81-1.17,0-2.72-12-.54-12-8.59,0-4,3.37-7.29,10.07-7.28a17.1,17.1,0,0,1,8.15,1.89l-2.19,5.27a13.36,13.36,0,0,0-6-1.61c-2.13,0-2.81.62-2.81,1.36,0,2.59,11.94.44,11.94,8.41,0,4-3.37,7.28-10.07,7.27A19.31,19.31,0,0,1,32,107.08"/><path class="cls-1" d="M73.1,107.41A21.37,21.37,0,0,1,64,109.32c-7.47,0-11.33-2.82-11.33-6.74A5.29,5.29,0,0,1,56,97.64a4.65,4.65,0,0,1-2.5-4.2c0-3.52,3.37-6.72,10.87-6.72a22.54,22.54,0,0,1,8.09,1.43l-2,5.3a15.3,15.3,0,0,0-5.83-1.17c-2.66,0-3.8.64-3.8,1.63,0,.8.49,1.33,2,1.33h6.32v5.38H62.39c-1.67,0-2.41.59-2.41,1.48s1.17,1.67,4.26,1.67A15.52,15.52,0,0,0,71,102.13Z"/><path class="cls-1" d="M73.72,98c0-6.54,5.16-11.29,12.2-11.29S98.11,91.49,98.11,98,93,109.33,85.91,109.33,73.72,104.57,73.72,98m17,0c0-3.36-2.16-5.4-4.84-5.4s-4.85,2-4.85,5.4,2.15,5.4,4.84,5.4,4.85-2,4.85-5.4"/><path class="cls-1" d="M121.64,87.25l0,21.61h-7.07v-2.31a7.21,7.21,0,0,1-6,2.8c-5,0-8-3.43-8-9.6V87.24h7.29V99.53c0,2.71,1.27,3.92,3.15,3.92s3.33-1.3,3.34-4.17v-12Z"/><polygon class="cls-1" points="125.16 87.25 132.44 87.25 132.43 103.22 142.19 103.22 142.19 108.87 125.14 108.86 125.16 87.25"/><path class="cls-1" d="M15.79,19.76v5.11H.63V.33H15.12V5.45H7V19.75Zm8.68,6.13h-6.4V0h6.41Z"/><path class="cls-1" d="M39.2,6.45a31.71,31.71,0,0,0,.66,6.93,11.35,11.35,0,0,0,1.88,4.48,3.89,3.89,0,0,0,2.73,1.74L43.1,24.88a7.6,7.6,0,0,1-3.73-1.36A11,11,0,0,1,36.19,20,11.06,11.06,0,0,1,33,23.51a7.6,7.6,0,0,1-3.73,1.36l-1.36-5.28q2.76-.27,4-3.5c.84-2.16,1.27-5.37,1.27-9.64v-1h-4.6V.35H43.76V5.47H39.2ZM52.41,9.87H55V15H52.41V25.91H46V0h6.41Z"/><path class="cls-1" d="M64.65.37a7.56,7.56,0,0,1,5.7,2c1.28,1.32,1.92,3.3,1.92,5.91s-.64,4.58-1.93,5.9a7.52,7.52,0,0,1-5.7,2,7.58,7.58,0,0,1-5.71-2Q57,12.18,57,8.27t1.93-5.91a7.58,7.58,0,0,1,5.71-2m-.56,17.17v3.23H81v5.15l-23.27,0V17.53Zm.55-12.06a1.13,1.13,0,0,0-1.26,1.29v3a1.26,1.26,0,1,0,2.52,0v-3a1.13,1.13,0,0,0-1.26-1.29M80.92,18.23H74.51L74.53,0h6.4Z"/><path class="cls-1" d="M92.5,9.28A9.08,9.08,0,0,1,89.42,11a11.34,11.34,0,0,1-3.7.59L84.36,7.53A4.49,4.49,0,0,0,87.92,6a6.48,6.48,0,0,0,1.39-4.46V0h6.37V1.51A6.52,6.52,0,0,0,97.05,6a4.52,4.52,0,0,0,3.56,1.57l-1.36,4.09a11.34,11.34,0,0,1-3.7-.6,8.85,8.85,0,0,1-3-1.75m-.38,11.88v1h17.1v3.74H85.72V17.41h16.8v-1H85.72V12.64l23.17,0v8.51Zm16.77-17.6h2.56V8h-2.55v3.65h-6.37V.05h6.37Z"/><path class="cls-1" d="M120.23,8.78h17.44V12H129v1H138v3.71H113.48V13h9.06V12h-8.38V4.59h16.76v-1H114.17V.43l23.17,0V7.8h-17.1ZM135.91,25A6.71,6.71,0,0,1,132,26H119.51a6.71,6.71,0,0,1-3.94-1,3.53,3.53,0,0,1-1.41-3.08,3.5,3.5,0,0,1,1.42-3.08,6.68,6.68,0,0,1,3.93-1H132a6.68,6.68,0,0,1,3.93,1,3.51,3.51,0,0,1,1.41,3.08A3.51,3.51,0,0,1,135.91,25m-15.72-3.6a.78.78,0,0,0-.46.14.44.44,0,0,0-.19.37.44.44,0,0,0,.19.38.76.76,0,0,0,.46.13h11.1a.74.74,0,0,0,.46-.14.42.42,0,0,0,.19-.37.46.46,0,0,0-.18-.38.78.78,0,0,0-.46-.13Z"/><path class="cls-1" d="M143.75,31.94a26,26,0,0,0,1.29,9.3,6.32,6.32,0,0,0,3.64,4l-2,5.11a6.81,6.81,0,0,1-3.15-1.54,11.44,11.44,0,0,1-2.74-3.37A12.18,12.18,0,0,1,138,48.8a7.31,7.31,0,0,1-3.13,1.56l-2-5.11a6.27,6.27,0,0,0,3.68-4q1.26-3.13,1.26-9.3V25.84h6Zm6.48-6.51h6.4v26h-6.41V39.09h-3.85V34h3.85Z"/><path class="cls-1" d="M185.3,38.4h-9.09v1h8.41v7.7H167.79v1H185v3.37H161.39V43.7h16.83v-1H161.39V39.37h8.42v-1h-9.1V34.67l24.6,0Zm-19.92-4.78a3.92,3.92,0,0,1-2.89-1.08,3.78,3.78,0,0,1-1.09-2.84,3.78,3.78,0,0,1,1.09-2.84,3.94,3.94,0,0,1,2.9-1.08h15.26a3.93,3.93,0,0,1,2.89,1.08,3.78,3.78,0,0,1,1.09,2.84,3.86,3.86,0,0,1-1.09,2.85,4,4,0,0,1-2.9,1.07Zm3-4.5a.62.62,0,0,0-.41.16.54.54,0,0,0-.17.42.57.57,0,0,0,.17.41.54.54,0,0,0,.41.17h9.27a.54.54,0,0,0,.42-.17.61.61,0,0,0,.15-.41.5.5,0,0,0-.57-.58Z"/><rect class="cls-1" y="97.03" width="25.19" height="5.5"/><path class="cls-1" d="M.56,34.6H11.21c7.23,0,12.2,4.11,12.19,10.81s-5,10.8-12.2,10.8H.55ZM10.9,50.53a4.75,4.75,0,0,0,5.15-5.12c0-3.3-2.09-5.12-5.15-5.12H7.85V50.53Z"/><path class="cls-1" d="M45.56,54.82a21.16,21.16,0,0,1-9.14,1.9C29,56.72,25.09,53.91,25.1,50a5.27,5.27,0,0,1,3.4-4.94,4.66,4.66,0,0,1-2.5-4.2c0-3.52,3.37-6.73,10.87-6.72A22.75,22.75,0,0,1,45,35.55l-2,5.31a15.37,15.37,0,0,0-5.84-1.18c-2.65,0-3.8.65-3.8,1.64,0,.8.5,1.33,2,1.33h6.33V48H34.85c-1.67,0-2.41.58-2.41,1.48s1.18,1.67,4.26,1.67a15.66,15.66,0,0,0,6.73-1.63Z"/><path class="cls-1" d="M46.15,54.51,48.5,49.2a14.84,14.84,0,0,0,7.13,2c2.06,0,2.81-.43,2.81-1.17,0-2.72-11.95-.53-11.95-8.59,0-4,3.37-7.29,10.07-7.28A17.1,17.1,0,0,1,64.71,36L62.52,41.3a13.34,13.34,0,0,0-6-1.6c-2.13,0-2.81.61-2.81,1.35,0,2.6,11.94.44,11.94,8.41,0,3.95-3.37,7.28-10.07,7.28a19.42,19.42,0,0,1-9.41-2.23"/><polygon class="cls-1" points="77.64 40.14 77.64 50.76 80.88 50.76 80.88 56.26 67.11 56.25 67.11 50.75 70.35 50.76 70.36 40.14 67.12 40.13 67.12 34.64 80.89 34.65 80.89 40.14 77.64 40.14"/><path class="cls-1" d="M97.86,44.88h6.33V56.27H99.43V54.94a8.69,8.69,0,0,1-5.8,1.82c-6,0-10.93-3.9-10.93-11,0-6.91,5.1-11.57,12.24-11.57,4.26,0,7.68,1.49,9.87,4.18l-4.66,4.1a6.15,6.15,0,0,0-4.85-2.38c-3.21,0-5.25,2.06-5.25,5.61,0,3.74,2,5.31,4.6,5.32a5.61,5.61,0,0,0,3.21-.93Z"/><path class="cls-1" d="M128.49,43.78v12.5h-7.29V44c0-2.71-1.26-3.92-3.21-3.92s-3.39,1.3-3.4,4.17v12H107.3V34.66h7.07V37a7.29,7.29,0,0,1,6.06-2.8c5.09,0,8.05,3.43,8.05,9.6"/><path class="cls-1" d="M.05,80.77,2.4,75.46a14.73,14.73,0,0,0,7.13,2c2.06,0,2.81-.43,2.81-1.17,0-2.72-11.95-.53-11.95-8.59,0-4,3.37-7.28,10.07-7.28a17.1,17.1,0,0,1,8.15,1.89l-2.19,5.28a13.23,13.23,0,0,0-6-1.61c-2.13,0-2.81.61-2.81,1.35,0,2.6,11.94.44,11.94,8.41,0,4-3.37,7.28-10.07,7.28A19.42,19.42,0,0,1,.05,80.77"/><path class="cls-1" d="M42.81,71V82.52H35.52V78.17H28.67v4.35H21.5V71c0-6.77,4.36-10.59,10.65-10.59S42.81,64.25,42.81,71m-7.29,1.66V70.39c0-2.78-1.45-4.08-3.42-4.08s-3.43,1.29-3.43,4.07v2.29Z"/><polygon class="cls-1" points="46.15 60.91 53.43 60.92 53.42 76.88 63.18 76.89 63.18 82.53 46.13 82.52 46.15 60.91"/><path class="cls-1" d="M64,71.73c0-6.54,5.16-11.3,12.2-11.29S88.41,65.2,88.4,71.74,83.24,83,76.2,83,64,78.28,64,71.73m17,0c0-3.36-2.16-5.4-4.85-5.4s-4.85,2-4.85,5.39,2.16,5.41,4.85,5.41,4.84-2,4.85-5.4"/><path class="cls-1" d="M112.24,70.06v12.5h-7.29V70.27c0-2.71-1.26-3.92-3.21-3.92s-3.39,1.3-3.4,4.17v12H91.05V60.94h7.07v2.31a7.29,7.29,0,0,1,6.06-2.8c5.09,0,8,3.43,8,9.6"/><path class="cls-1" d="M32,107.08l2.35-5.31a14.84,14.84,0,0,0,7.13,2c2.06,0,2.8-.43,2.81-1.17,0-2.72-12-.54-12-8.59,0-4,3.37-7.29,10.07-7.28a17.1,17.1,0,0,1,8.15,1.89l-2.19,5.27a13.36,13.36,0,0,0-6-1.61c-2.13,0-2.81.62-2.81,1.36,0,2.59,11.94.44,11.94,8.41,0,4-3.37,7.28-10.07,7.27A19.31,19.31,0,0,1,32,107.08"/><path class="cls-1" d="M73.1,107.41A21.37,21.37,0,0,1,64,109.32c-7.47,0-11.33-2.82-11.33-6.74A5.29,5.29,0,0,1,56,97.64a4.65,4.65,0,0,1-2.5-4.2c0-3.52,3.37-6.72,10.87-6.72a22.54,22.54,0,0,1,8.09,1.43l-2,5.3a15.3,15.3,0,0,0-5.83-1.17c-2.66,0-3.8.64-3.8,1.63,0,.8.49,1.33,2,1.33h6.32v5.38H62.39c-1.67,0-2.41.59-2.41,1.48s1.17,1.67,4.26,1.67A15.52,15.52,0,0,0,71,102.13Z"/><path class="cls-1" d="M73.72,98c0-6.54,5.16-11.29,12.2-11.29S98.11,91.49,98.11,98,93,109.33,85.91,109.33,73.72,104.57,73.72,98m17,0c0-3.36-2.16-5.4-4.84-5.4s-4.85,2-4.85,5.4,2.15,5.4,4.84,5.4,4.85-2,4.85-5.4"/><path class="cls-1" d="M121.64,87.25l0,21.61h-7.07v-2.31a7.21,7.21,0,0,1-6,2.8c-5,0-8-3.43-8-9.6V87.24h7.29V99.53c0,2.71,1.27,3.92,3.15,3.92s3.33-1.3,3.34-4.17v-12Z"/><polygon class="cls-1" points="125.16 87.25 132.44 87.25 132.43 103.22 142.19 103.22 142.19 108.87 125.14 108.86 125.16 87.25"/><path class="cls-1" d="M15.79,19.76v5.11H.63V.33H15.12V5.45H7V19.75Zm8.68,6.13h-6.4V0h6.41Z"/><path class="cls-1" d="M39.2,6.45a31.71,31.71,0,0,0,.66,6.93,11.35,11.35,0,0,0,1.88,4.48,3.89,3.89,0,0,0,2.73,1.74L43.1,24.88a7.6,7.6,0,0,1-3.73-1.36A11,11,0,0,1,36.19,20,11.06,11.06,0,0,1,33,23.51a7.6,7.6,0,0,1-3.73,1.36l-1.36-5.28q2.76-.27,4-3.5c.84-2.16,1.27-5.37,1.27-9.64v-1h-4.6V.35H43.76V5.47H39.2ZM52.41,9.87H55V15H52.41V25.91H46V0h6.41Z"/><path class="cls-1" d="M64.65.37a7.56,7.56,0,0,1,5.7,2c1.28,1.32,1.92,3.3,1.92,5.91s-.64,4.58-1.93,5.9a7.52,7.52,0,0,1-5.7,2,7.58,7.58,0,0,1-5.71-2Q57,12.18,57,8.27t1.93-5.91a7.58,7.58,0,0,1,5.71-2m-.56,17.17v3.23H81v5.15l-23.27,0V17.53Zm.55-12.06a1.13,1.13,0,0,0-1.26,1.29v3a1.26,1.26,0,1,0,2.52,0v-3a1.13,1.13,0,0,0-1.26-1.29M80.92,18.23H74.51L74.53,0h6.4Z"/><path class="cls-1" d="M92.5,9.28A9.08,9.08,0,0,1,89.42,11a11.34,11.34,0,0,1-3.7.59L84.36,7.53A4.49,4.49,0,0,0,87.92,6a6.48,6.48,0,0,0,1.39-4.46V0h6.37V1.51A6.52,6.52,0,0,0,97.05,6a4.52,4.52,0,0,0,3.56,1.57l-1.36,4.09a11.34,11.34,0,0,1-3.7-.6,8.85,8.85,0,0,1-3-1.75m-.38,11.88v1h17.1v3.74H85.72V17.41h16.8v-1H85.72V12.64l23.17,0v8.51Zm16.77-17.6h2.56V8h-2.55v3.65h-6.37V.05h6.37Z"/><path class="cls-1" d="M120.23,8.78h17.44V12H129v1H138v3.71H113.48V13h9.06V12h-8.38V4.59h16.76v-1H114.17V.43l23.17,0V7.8h-17.1ZM135.91,25A6.71,6.71,0,0,1,132,26H119.51a6.71,6.71,0,0,1-3.94-1,3.53,3.53,0,0,1-1.41-3.08,3.5,3.5,0,0,1,1.42-3.08,6.68,6.68,0,0,1,3.93-1H132a6.68,6.68,0,0,1,3.93,1,3.51,3.51,0,0,1,1.41,3.08A3.51,3.51,0,0,1,135.91,25m-15.72-3.6a.78.78,0,0,0-.46.14.44.44,0,0,0-.19.37.44.44,0,0,0,.19.38.76.76,0,0,0,.46.13h11.1a.74.74,0,0,0,.46-.14.42.42,0,0,0,.19-.37.46.46,0,0,0-.18-.38.78.78,0,0,0-.46-.13Z"/><path class="cls-1" d="M143.75,31.94a26,26,0,0,0,1.29,9.3,6.32,6.32,0,0,0,3.64,4l-2,5.11a6.81,6.81,0,0,1-3.15-1.54,11.44,11.44,0,0,1-2.74-3.37A12.18,12.18,0,0,1,138,48.8a7.31,7.31,0,0,1-3.13,1.56l-2-5.11a6.27,6.27,0,0,0,3.68-4q1.26-3.13,1.26-9.3V25.84h6Zm6.48-6.51h6.4v26h-6.41V39.09h-3.85V34h3.85Z"/><path class="cls-1" d="M185.3,38.4h-9.09v1h8.41v7.7H167.79v1H185v3.37H161.39V43.7h16.83v-1H161.39V39.37h8.42v-1h-9.1V34.67l24.6,0Zm-19.92-4.78a3.92,3.92,0,0,1-2.89-1.08,3.78,3.78,0,0,1-1.09-2.84,3.78,3.78,0,0,1,1.09-2.84,3.94,3.94,0,0,1,2.9-1.08h15.26a3.93,3.93,0,0,1,2.89,1.08,3.78,3.78,0,0,1,1.09,2.84,3.86,3.86,0,0,1-1.09,2.85,4,4,0,0,1-2.9,1.07Zm3-4.5a.62.62,0,0,0-.41.16.54.54,0,0,0-.17.42.57.57,0,0,0,.17.41.54.54,0,0,0,.41.17h9.27a.54.54,0,0,0,.42-.17.61.61,0,0,0,.15-.41.5.5,0,0,0-.57-.58Z"/><rect class="cls-1" y="97.03" width="25.19" height="5.5"/></g></g></svg>