<svg xmlns="http://www.w3.org/2000/svg" viewBox="0 0 123.56 20.02"><defs><style>.cls-1{fill:#fff;}</style></defs><g id="레이어_2" data-name="레이어 2"><g id="레이어_1-2" data-name="레이어 1"><polygon class="cls-1" points="23 10.59 23 14.46 27.39 19.84 33.59 19.84 26.04 10.59 23 10.59"/><path class="cls-1" d="M5.87,4.33h.75A1.21,1.21,0,0,1,7.91,5.44a1.21,1.21,0,0,1-1.29,1.1H5.87V10H8C11,9.8,12.9,7.8,12.9,5.35S10.8.72,7.57.72H5.87Z"/><polygon class="cls-1" points="23 9.97 26.04 9.97 33.59 0.72 27.39 0.72 23 6.1 23 9.97"/><polygon class="cls-1" points="22.38 9.97 22.38 6.1 17.98 0.72 11.79 0.72 19.34 9.97 22.38 9.97"/><polygon class="cls-1" points="22.38 10.59 19.34 10.59 13.98 17.15 8.63 10.59 5.87 10.59 5.87 14.8 9.98 19.84 16.17 19.84 17.98 19.84 22.38 14.46 22.38 10.59"/><polygon class="cls-1" points="5.25 9.97 5.25 0.72 4.18 0.72 0 0.72 0 9.97 5.25 9.97"/><rect class="cls-1" y="10.59" width="5.25" height="9.27"/><path class="cls-1" d="M50.59,10.5l-4.28,4.38v5H44.92V.82h1.39V13.09L58.23.82h1.69l-8.4,8.67,9,10.42H58.8Z"/><path class="cls-1" d="M70.31,2.08v8.15H80.48v1.26H70.31v8.42H68.92V.82H81.68V2.08Z"/><path class="cls-1" d="M92.83,6.91a5.24,5.24,0,0,1,1.41,4v9h-1.3V17.37a4.74,4.74,0,0,1-2,1.95,6.59,6.59,0,0,1-3.14.7,5.76,5.76,0,0,1-3.75-1.12A3.64,3.64,0,0,1,82.68,16,3.65,3.65,0,0,1,84,13.08,6.06,6.06,0,0,1,88,12h4.89V10.82a4,4,0,0,0-1.08-3,4.37,4.37,0,0,0-3.14-1A7.56,7.56,0,0,0,86,7.25a6.72,6.72,0,0,0-2.19,1.32l-.69-1A7.53,7.53,0,0,1,85.64,6.1a9,9,0,0,1,3.13-.53A5.62,5.62,0,0,1,92.83,6.91ZM91,18.08a5,5,0,0,0,1.87-2.37V13H88a4.81,4.81,0,0,0-3,.76,2.55,2.55,0,0,0-.94,2.1,2.61,2.61,0,0,0,1,2.19,4.7,4.7,0,0,0,2.92.8,5.34,5.34,0,0,0,3-.81Z"/><path class="cls-1" d="M98.66,1.89a1,1,0,0,1-.32-.77A1.12,1.12,0,0,1,99.45,0h0a1.09,1.09,0,0,1,.79.31,1,1,0,0,1,.33.78,1.12,1.12,0,0,1-1.12,1.12h0A1.12,1.12,0,0,1,98.66,1.89Zm.11,3.78h1.36V19.91H98.77Z"/><path class="cls-1" d="M108.15,6.39a6.51,6.51,0,0,1,3.38-.83V6.9l-.32,0a4.72,4.72,0,0,0-3.71,1.48,5.92,5.92,0,0,0-1.34,4.13v7.42H104.8V5.67h1.32V8.78A5,5,0,0,1,108.15,6.39Z"/><path class="cls-1" d="M114.67,19.5a6.77,6.77,0,0,1-2.43-1.32l.63-1.09a7.15,7.15,0,0,0,2.25,1.23,8.49,8.49,0,0,0,2.87.49,5.67,5.67,0,0,0,3.18-.71,2.25,2.25,0,0,0,1-2,1.84,1.84,0,0,0-.55-1.42,3.56,3.56,0,0,0-1.38-.77c-.55-.16-1.3-.33-2.26-.51a18.1,18.1,0,0,1-2.73-.66,4.26,4.26,0,0,1-1.77-1.14,3.09,3.09,0,0,1-.73-2.18,3.41,3.41,0,0,1,1.4-2.8,6.33,6.33,0,0,1,4-1.1,9.77,9.77,0,0,1,2.69.38,6.62,6.62,0,0,1,2.19,1L122.42,8a6.78,6.78,0,0,0-2-1,7.79,7.79,0,0,0-2.3-.32,5.07,5.07,0,0,0-3,.73,2.29,2.29,0,0,0-1,1.93,1.94,1.94,0,0,0,.57,1.49,3.59,3.59,0,0,0,1.41.79c.55.17,1.33.36,2.33.56a19.13,19.13,0,0,1,2.69.64,4.07,4.07,0,0,1,1.73,1.1,3,3,0,0,1,.71,2.1,3.31,3.31,0,0,1-1.48,2.84A7,7,0,0,1,117.94,20,10.34,10.34,0,0,1,114.67,19.5Z"/></g></g></svg>